<svg xmlns="http://www.w3.org/2000/svg" viewBox="0 0 887.79 179.88"><defs><style>.cls-1{fill:#00baba;}</style></defs><title>new_1Asset 2</title><g id="Layer_2" data-name="Layer 2"><g id="Layer_1-2" data-name="Layer 1"><path d="M82.78,110.56v16.55H16V57.35H82.78v15.7H98.9V67q0-13.29-4.64-18T76.5,44.24H22.59Q9.47,44.24,4.74,49T0,67v50.73q0,13.2,4.74,18t17.85,4.79H76.5q13.11,0,17.76-4.74t4.64-18v-7.17Z"/><path d="M510,73.05V57.35h79.69v15.7h15.84V67q0-13.2-4.69-18t-17.71-4.78H516.59q-13.2,0-17.9,4.82T494,67v6Z"/><path d="M589.72,110.56v16.55H510V110.56H494v7.17q0,13.11,4.68,17.94t17.9,4.83h66.57q13,0,17.71-4.74t4.69-18v-7.17Z"/><rect x="718.38" y="44.24" width="14.75" height="28.81"/><path d="M641.29,73.05c0-.33,0-.68,0-1q-.27-5-.81-9.34a41.64,41.64,0,0,0,8.1,9.38c.41.38.75.69,1.05,1h19.53L636.87,44.24h-10.1V73.05Z"/><path d="M718.71,110.56l0,.47c.25,3.37.61,6.61,1.1,9.7q-2.93-3.74-5.69-6.83c-1.11-1.22-2.16-2.33-3.19-3.34H691l33.08,29.94h9V110.56Z"/><rect x="626.77" y="110.56" width="14.75" height="29.94"/><rect x="206.73" y="44.24" width="15.85" height="28.81"/><path d="M206.73,110.56v16.55H136.61V110.56H120.49v7.17q0,13.11,4.73,17.94t17.85,4.83h57.1q13,0,17.72-4.74t4.69-18v-7.17Z"/><rect x="120.49" y="44.24" width="16.12" height="28.81"/><rect x="374.99" y="44.24" width="16.12" height="28.81"/><polygon points="431 73.05 474.62 44.24 451.12 44.24 409.21 73.05 431 73.05"/><polygon points="410.9 110.56 455.4 140.5 482.27 140.5 436.08 110.56 410.9 110.56"/><rect x="374.99" y="110.56" width="16.12" height="29.94"/><polygon points="291.68 73.05 307.7 73.05 307.7 57.35 351.87 57.35 351.87 44.24 247.69 44.24 247.69 57.35 291.68 57.35 291.68 73.05"/><rect x="291.68" y="110.56" width="16.03" height="29.94"/><path class="cls-1" d="M63.25,90.2l91.06-2.1c86.73-2,235.77-.8,322.5-.9Q616.94,87,757.08,87c10.8,0,21.59-.19,33-2.22L777.47,70.15c-.86-2.06,0,0-6.73-7.26h0c-.24-1.48-11.35-10.65-10-12.49.66-.88,10.3,8,11.26,8.43l25.29,18.77c2.79-26.48,5.47-52,8.16-77.59,2.53,25.62,5,51.17,7.69,77.94l37.2-28.35.86.93L820.78,84.6l61.83,5.52a4,4,0,0,0,1.49.35c1.52.06,3.72-.21,3.69,1.66,0,2.17-2.4.86-3.68,1.21a10.68,10.68,0,0,0-1.48.37c-20.16,2.37-40.43,3.73-62.19,5.2l35.23,39.39-42.26-32.19c-3.45,25-4.31,49.55-8.38,73.77-2.54-24.19-5.07-48.38-7.72-73.7L755.36,138l34.86-38.92a207.23,207.23,0,0,0-30.9-2.19q-136.74-.09-273.48,0c-76.92,0-216.15.32-293.07-.19-43.88-.29-87.74-2-131.61-3-4.49-.59-9-.12-13.51-.28-1,0-2.29,0-2.44-1.21-.19-1.63,1.21-1.62,2.45-1.66C52.86,90.3,58.07,90.81,63.25,90.2Z"/></g></g></svg>